HIERARCHY
ROOT hip
{
  OFFSET 0.0 0.0 0.0
  CHANNELS 6 Xposition Yposition Zposition Zrotation Yrotation Xrotation
  JOINT abdomen
  {
    OFFSET 0.0 20.6881 -0.73152
    CHANNELS 3 Zrotation Xrotation Yrotation
    JOINT chest
    {
      OFFSET 0.0 11.7043 -0.48768
      CHANNELS 3 Zrotation Xrotation Yrotation
      JOINT neck
      {
        OFFSET 0.0 22.1894 -2.19456
        CHANNELS 3 Zrotation Xrotation Yrotation
        JOINT head
        {
          OFFSET -0.24384 7.07133 1.2192
          CHANNELS 3 Zrotation Xrotation Yrotation
          JOINT leftEye
          {
            OFFSET 4.14528 8.04674 8.04672
            CHANNELS 3 Zrotation Xrotation Yrotation
            End Site
            {
              OFFSET 1.0 0.0 0.0
            }
          }
          JOINT rightEye
          {
            OFFSET -3.6576 8.04674 8.04672
            CHANNELS 3 Zrotation Xrotation Yrotation
            End Site
            {
              OFFSET 1.0 0.0 0.0
            }
          }
        }
      }
      JOINT rCollar
      {
        OFFSET -2.68224 19.2634 -4.8768
        CHANNELS 3 Zrotation Xrotation Yrotation
        JOINT rShldr
        {
          OFFSET -8.77824 -1.95073 1.46304
          CHANNELS 3 Zrotation Xrotation Yrotation
          JOINT rForeArm
          {
            OFFSET -28.1742 -1.7115 0.48768
            CHANNELS 3 Zrotation Xrotation Yrotation
            JOINT rHand
            {
              OFFSET -22.5879 0.773209 7.07136
              CHANNELS 3 Zrotation Xrotation Yrotation
              JOINT rThumb1
              {
                OFFSET -1.2192 -0.487915 3.41376
                CHANNELS 3 Zrotation Xrotation Yrotation
                JOINT rThumb2
                {
                  OFFSET -3.37035 -0.52449 3.41376
                  CHANNELS 3 Zrotation Xrotation Yrotation
                  End Site
                  {
                    OFFSET -1.78271 -1.18214 1.43049
                  }
                }
              }
              JOINT rIndex1
              {
                OFFSET -7.75947 0.938293 5.60832
                CHANNELS 3 Zrotation Xrotation Yrotation
                JOINT rIndex2
                {
                  OFFSET -2.54057 -0.884171 1.56538
                  CHANNELS 3 Zrotation Xrotation Yrotation
                  End Site
                  {
                    OFFSET -1.62519 -0.234802 1.16502
                  }
                }
              }
              JOINT rMid1
              {
                OFFSET -8.24714 1.18213 3.41376
                CHANNELS 3 Zrotation Xrotation Yrotation
                JOINT rMid2
                {
                  OFFSET -3.10165 -0.590103 1.0647
                  CHANNELS 3 Zrotation Xrotation Yrotation
                  End Site
                  {
                    OFFSET -2.48547 -0.328903 0.83742
                  }
                }
              }
              JOINT rRing1
              {
                OFFSET -8.82822 0.546677 1.51678
                CHANNELS 3 Zrotation Xrotation Yrotation
                JOINT rRing2
                {
                  OFFSET -2.60934 -0.819778 -0.0198488
                  CHANNELS 3 Zrotation Xrotation Yrotation
                  End Site
                  {
                    OFFSET -2.33842 -0.294052 0.168128
                  }
                }
              }
              JOINT rPinky1
              {
                OFFSET -8.27202 -0.0477905 -0.4584
                CHANNELS 3 Zrotation Xrotation Yrotation
                JOINT rPinky2
                {
                  OFFSET -1.82734 -0.647385 -0.700984
                  CHANNELS 3 Zrotation Xrotation Yrotation
                  End Site
                  {
                    OFFSET -1.69225 -0.51767 -0.607171
                  }
                }
              }
            }
          }
        }
      }
      JOINT lCollar
      {
        OFFSET 2.68224 19.2634 -4.8768
        CHANNELS 3 Zrotation Xrotation Yrotation
        JOINT lShldr
        {
          OFFSET 8.77824 -1.95073 1.46304
          CHANNELS 3 Zrotation Xrotation Yrotation
          JOINT lForeArm
          {
            OFFSET 28.1742 -1.7115 0.48768
            CHANNELS 3 Zrotation Xrotation Yrotation
            JOINT lHand
            {
              OFFSET 22.5879 0.773209 7.07136
              CHANNELS 3 Zrotation Xrotation Yrotation
              JOINT lThumb1
              {
                OFFSET 1.2192 -0.487915 3.41376
                CHANNELS 3 Zrotation Xrotation Yrotation
                JOINT lThumb2
                {
                  OFFSET 3.37035 -0.52449 3.41376
                  CHANNELS 3 Zrotation Xrotation Yrotation
                  End Site
                  {
                    OFFSET 1.78271 -1.18214 1.43049
                  }
                }
              }
              JOINT lIndex1
              {
                OFFSET 7.75947 0.938293 5.60832
                CHANNELS 3 Zrotation Xrotation Yrotation
                JOINT lIndex2
                {
                  OFFSET 2.54057 -0.884171 1.56538
                  CHANNELS 3 Zrotation Xrotation Yrotation
                  End Site
                  {
                    OFFSET 1.62519 -0.234802 1.16502
                  }
                }
              }
              JOINT lMid1
              {
                OFFSET 8.24714 1.18213 3.41376
                CHANNELS 3 Zrotation Xrotation Yrotation
                JOINT lMid2
                {
                  OFFSET 3.10165 -0.590103 1.0647
                  CHANNELS 3 Zrotation Xrotation Yrotation
                  End Site
                  {
                    OFFSET 2.48547 -0.328903 0.83742
                  }
                }
              }
              JOINT lRing1
              {
                OFFSET 8.82822 0.546677 1.51678
                CHANNELS 3 Zrotation Xrotation Yrotation
                JOINT lRing2
                {
                  OFFSET 2.60934 -0.819778 -0.0198488
                  CHANNELS 3 Zrotation Xrotation Yrotation
                  End Site
                  {
                    OFFSET 2.33842 -0.294052 0.168128
                  }
                }
              }
              JOINT lPinky1
              {
                OFFSET 8.27202 -0.0477905 -0.4584
                CHANNELS 3 Zrotation Xrotation Yrotation
                JOINT lPinky2
                {
                  OFFSET 1.82734 -0.647385 -0.700984
                  CHANNELS 3 Zrotation Xrotation Yrotation
                  End Site
                  {
                    OFFSET 1.69225 -0.51767 -0.607171
                  }
                }
              }
            }
          }
        }
      }
    }
  }
  JOINT rButtock
  {
    OFFSET -8.77824 4.35084 1.2192
    CHANNELS 3 Zrotation Xrotation Yrotation
    JOINT rThigh
    {
      OFFSET 0.0 -1.70687 -2.19456
      CHANNELS 3 Zrotation Xrotation Yrotation
      JOINT rShin
      {
        OFFSET 0.0 -36.8199 0.73152
        CHANNELS 3 Zrotation Xrotation Yrotation
        JOINT rFoot
        {
          OFFSET 0.73152 -45.1104 -5.12064
          CHANNELS 3 Zrotation Xrotation Yrotation
          End Site
          {
            OFFSET -1.1221 -3.69964 12.103
          }
        }
      }
    }
  }
  JOINT lButtock
  {
    OFFSET 8.77824 4.35084 1.2192
    CHANNELS 3 Zrotation Xrotation Yrotation
    JOINT lThigh
    {
      OFFSET 0.0 -1.70687 -2.19456
      CHANNELS 3 Zrotation Xrotation Yrotation
      JOINT lShin
      {
        OFFSET 0.0 -36.8199 0.73152
        CHANNELS 3 Zrotation Xrotation Yrotation
        JOINT lFoot
        {
          OFFSET -0.73152 -45.1104 -5.12064
          CHANNELS 3 Zrotation Xrotation Yrotation
          End Site
          {
            OFFSET 1.1221 -3.69964 12.103
          }
        }
      }
    }
  }
}
MOTION
Frames: 4
Frame Time: 0.00833333
0.0 79.5233 0.0 8.3063 10.5907 4.1695 -9.89177 -0.202905 1.05253 -0.157935 -8.72183 0.300945 11.7279 2.43713 -6.54615 0.184998 -13.6359 -15.6525 -0.0 0.0 0.0 -0.0 0.0 0.0 -2.05128e-13 1.51872e-13 -1.92374e-13 84.3615 -21.4215 -26.1362 -10.6389 -4.5388 19.0052 -7.96958e-06 -0.0806078 -0.0113287 9.07481e-10 -2.07411e-09 -8.85743e-10 1.5664e-09 -3.59343e-09 -1.53651e-09 9.07495e-10 -2.07411e-09 -8.85756e-10 7.73091 5.47488 0.417314 9.0748e-10 -2.07411e-09 -8.85746e-10 2.90554 0.965183 0.102902 9.07486e-10 -2.07411e-09 -8.85746e-10 10.2786 0.731801 0.0259123 9.07473e-10 -2.07411e-09 -8.85737e-10 2.22167 -0.733487 -0.20892 -2.05177e-13 1.5187e-13 -1.92473e-13 -61.77 65.4337 -2.39224 17.2664 -9.91916 -32.3946 0.151552 -11.029 1.56966 1.74471e-09 2.50747e-09 8.78752e-10 3.00798e-09 4.34059e-09 1.53708e-09 1.7447e-09 2.50746e-09 8.78771e-10 -7.73091 5.47488 -0.417314 1.74472e-09 2.50748e-09 8.78759e-10 -2.90554 0.965183 -0.102902 1.74471e-09 2.50748e-09 8.78755e-10 -10.2786 0.731801 -0.0259123 1.74471e-09 2.50748e-09 8.78749e-10 -2.22167 -0.733487 0.20892 -2.03217e-16 0.0 -3.88251e-19 -31.2653 -54.0226 -20.2811 -0.580779 48.0607 0.74794 2.92102 21.9267 -13.1373 2.03217e-16 0.0 3.88251e-19 -7.39697 19.9702 -3.10152 -0.0816208 4.1532 -0.732181 1.8516 -8.34168 10.0441
-0.17813999999999908 79.1875 0.6359999999999957 8.3337 10.7198 4.3252 -10.1153 -0.286439 2.38935 -1.06572 -8.79166 0.618337 11.9955 1.99331 -7.21303 0.581576 -13.3841 -17.0741 -0.0 0.0 0.0 -0.0 0.0 0.0 -1.86385e-13 1.47449e-13 -4.35234e-14 85.2957 -22.6205 -26.0787 -10.6181 -4.52494 18.9668 -0.000243663 0.205441 0.0288927 6.80103e-10 -5.60547e-10 -8.83862e-10 1.17179e-09 -9.72704e-10 -1.53152e-09 6.80118e-10 -5.60547e-10 -8.83874e-10 7.73091 5.47488 0.417314 6.80103e-10 -5.60549e-10 -8.83864e-10 2.90554 0.965183 0.102902 6.80108e-10 -5.60548e-10 -8.83865e-10 10.2786 0.731801 0.0259123 6.80095e-10 -5.60543e-10 -8.83858e-10 2.22167 -0.733487 -0.20892 -1.86462e-13 1.47447e-13 -4.36585e-14 -60.6452 65.9304 -2.49041 17.0733 -9.72366 -31.9732 0.149897 -10.9608 1.55975 1.11448e-09 2.04067e-09 5.41732e-10 1.92364e-09 3.53469e-09 9.46775e-10 1.11447e-09 2.04066e-09 5.41749e-10 -7.73091 5.47488 -0.417314 1.11449e-09 2.04068e-09 5.41738e-10 -2.90554 0.965183 -0.102902 1.11448e-09 2.04068e-09 5.41733e-10 -10.2786 0.731801 -0.0259123 1.11449e-09 2.04068e-09 5.41727e-10 -2.22167 -0.733487 0.20892 -2.03217e-16 0.0 -3.88251e-19 -30.3594 -53.1725 -19.6912 -0.596113 48.7298 0.806594 2.08991 19.6829 -11.8055 2.03217e-16 0.0 3.88251e-19 -7.13235 19.4337 -3.07153 -0.074772 5.69733 -0.731554 2.00498 -8.75425 10.1648
-0.37016000000000027 78.9277 1.3329999999999984 8.2881 10.8393 4.429 -10.3201 -0.331993 3.69315 -1.90985 -8.81915 0.931318 12.2837 1.54913 -7.88673 0.942686 -13.1408 -18.526 -0.0 0.0 0.0 -0.0 0.0 0.0 -1.75563e-13 1.36367e-13 1.91681e-13 86.2102 -23.8051 -25.9466 -10.5839 -4.5021 18.9038 -0.00120758 0.550203 0.0773832 6.2116e-10 1.80476e-09 -9.23644e-10 1.06759e-09 3.12238e-09 -1.59772e-09 6.21174e-10 1.80476e-09 -9.23655e-10 7.73091 5.47488 0.417314 6.2116e-10 1.80475e-09 -9.23643e-10 2.90554 0.965183 0.102902 6.21164e-10 1.80475e-09 -9.23647e-10 10.2786 0.731801 0.0259123 6.21151e-10 1.80476e-09 -9.23643e-10 2.22167 -0.733487 -0.20892 -1.75674e-13 1.36365e-13 1.91476e-13 -59.5506 66.2421 -2.54428 16.8659 -9.51555 -31.5263 0.150232 -10.9622 1.56 1.98585e-10 1.48791e-09 9.01669e-11 3.4702e-10 2.58068e-09 1.5522e-10 1.98577e-10 1.48791e-09 9.01803e-11 -7.73091 5.47488 -0.417314 1.9859e-10 1.48792e-09 9.01729e-11 -2.90554 0.965183 -0.102902 1.98586e-10 1.48792e-09 9.01665e-11 -10.2786 0.731801 -0.0259123 1.98589e-10 1.48792e-09 9.01596e-11 -2.22167 -0.733487 0.20892 -2.03217e-16 0.0 -3.88251e-19 -29.2915 -52.2049 -18.8923 -0.603629 49.1861 0.85458 1.24848 16.8516 -10.373 2.03217e-16 0.0 3.88251e-19 -6.80645 18.6019 -3.01079 -0.0647667 7.83859 -0.726001 2.23862 -9.37703 10.333
-0.5704499999999992 78.7377 2.078000000000003 8.189 10.9464 4.4785 -10.381 -0.37772 4.66326 -2.47858 -8.78715 1.16839 12.4281 1.15658 -8.35142 1.14595 -12.9456 -19.5415 -0.0 0.0 0.0 -0.0 0.0 0.0 -1.59924e-13 1.18923e-13 4.16572e-13 86.8335 -24.5911 -25.6623 -10.5106 -4.45558 18.7653 -0.00221927 0.996486 0.140122 5.74758e-10 4.06342e-09 -9.26541e-10 9.85447e-10 7.03289e-09 -1.59997e-09 5.7477e-10 4.06342e-09 -9.26551e-10 7.73091 5.47488 0.417314 5.74758e-10 4.06342e-09 -9.26538e-10 2.90554 0.965183 0.102902 5.74761e-10 4.06342e-09 -9.26543e-10 10.2786 0.731801 0.0259123 5.74748e-10 4.06343e-09 -9.26543e-10 2.22167 -0.733487 -0.20892 -1.60062e-13 1.18922e-13 4.16301e-13 -59.4061 65.8708 -1.95583 16.634 -9.28769 -31.0275 0.148948 -10.9155 1.55319 -6.90875e-10 9.2474e-10 -3.38442e-10 -1.18443e-09 1.60836e-09 -5.96068e-10 -6.90883e-10 9.24739e-10 -3.38433e-10 -7.73091 5.47488 -0.417314 -6.90872e-10 9.24742e-10 -3.38437e-10 -2.90554 0.965183 -0.102902 -6.90875e-10 9.24742e-10 -3.38445e-10 -10.2786 0.731801 -0.0259123 -6.90871e-10 9.24746e-10 -3.38452e-10 -2.22167 -0.733487 0.20892 -2.03217e-16 0.0 -3.88251e-19 -28.1008 -51.2168 -18.0083 -0.606227 49.4859 0.893296 0.557484 13.8386 -9.201 2.03217e-16 0.0 3.88251e-19 -6.40489 17.7374 -2.98045 -0.0546113 10.0993 -0.719281 2.47073 -9.9381 10.4925
